<?xml version="1.0" encoding="UTF-8" standalone="no"?> <svg xmlns="http://www.w3.org/2000/svg" viewBox="0 0 64 64"><g id="Layer_83" data-name="Layer 83"><path d="M35.63,52.75H26.5a.76.76,0,0,1-.75-.75V36.75H19.27a.76.76,0,0,1-.75-.75V27.83a.76.76,0,0,1,.75-.75h6.48V22.41A11.18,11.18,0,0,1,36.91,11.25h6.82a.76.76,0,0,1,.75.75v8a.75.75,0,0,1-.75.75h-4a3.91,3.91,0,0,0-3.9,3.91v2.52h8.86a.77.77,0,0,1,.59.29.74.74,0,0,1,.13.64l-2,8a.74.74,0,0,1-.72.57H36.38V52A.76.76,0,0,1,35.63,52.75Zm-8.38-1.5h7.63V36a.75.75,0,0,1,.75-.75h6.51l1.63-6.53H35.12a.75.75,0,0,1-.75-.75V24.7a5.41,5.41,0,0,1,5.4-5.41H43V12.75H36.91a9.67,9.67,0,0,0-9.66,9.66v5.42a.75.75,0,0,1-.75.75H20v6.67H26.5a.76.76,0,0,1,.75.75Z"/><path d="M32,60.75A28.75,28.75,0,1,1,60.75,32,28.79,28.79,0,0,1,32,60.75Zm0-56A27.25,27.25,0,1,0,59.25,32,27.28,27.28,0,0,0,32,4.75Z"/></g></svg>